<svg xmlns="http://www.w3.org/2000/svg" xmlns:xlink="http://www.w3.org/1999/xlink" viewBox="0 0 500 500"><defs><style>.cls-1,.cls-22{fill:none;}.cls-2{isolation:isolate;}.cls-3{fill:#f9f9f9;}.cls-4,.cls-5,.cls-6{opacity:0.25;}.cls-4{fill:url(#Degradado_sin_nombre_2);}.cls-5{fill:url(#Degradado_sin_nombre_2-2);}.cls-6{fill:url(#Degradado_sin_nombre_2-3);}.cls-7{fill:url(#Degradado_sin_nombre_64);}.cls-10,.cls-16,.cls-20,.cls-21,.cls-24,.cls-25,.cls-8{mix-blend-mode:multiply;}.cls-8{fill:url(#Degradado_sin_nombre_64-2);}.cls-9{fill:url(#Degradado_sin_nombre_64-3);}.cls-10{fill:url(#Degradado_sin_nombre_64-4);}.cls-11{fill:#ffbe00;}.cls-12,.cls-20,.cls-25{fill:#3f51b5;}.cls-13{fill:#fff;}.cls-14{fill:#002c72;}.cls-15{clip-path:url(#clip-path);}.cls-17{clip-path:url(#clip-path-2);}.cls-18{clip-path:url(#clip-path-3);}.cls-19{clip-path:url(#clip-path-4);}.cls-20,.cls-21{opacity:0.3;}.cls-22{stroke:#3f51b5;stroke-miterlimit:10;stroke-width:2px;}.cls-23{clip-path:url(#clip-path-5);}.cls-24{opacity:0.2;}</style><linearGradient id="Degradado_sin_nombre_2" x1="36.77" y1="273.25" x2="441.63" y2="273.25" gradientTransform="translate(336.22 613.33) rotate(-155.37)" gradientUnits="userSpaceOnUse"><stop offset="0" stop-color="#c2e1fe"/><stop offset="1" stop-color="#3f51b5" stop-opacity="0"/></linearGradient><linearGradient id="Degradado_sin_nombre_2-2" x1="47.57" y1="265.25" x2="452.43" y2="265.25" gradientTransform="matrix(1, 0, 0, 1, 0, 0)" xlink:href="#Degradado_sin_nombre_2"/><linearGradient id="Degradado_sin_nombre_2-3" x1="75.72" y1="266.7" x2="424.28" y2="266.7" gradientTransform="matrix(1, 0, 0, 1, 0, 0)" xlink:href="#Degradado_sin_nombre_2"/><linearGradient id="Degradado_sin_nombre_64" x1="336.47" y1="205.87" x2="445.37" y2="354.38" gradientUnits="userSpaceOnUse"><stop offset="0" stop-color="#fdda42"/><stop offset="1" stop-color="#e5a003"/></linearGradient><linearGradient id="Degradado_sin_nombre_64-2" x1="392.22" y1="332.18" x2="392.22" y2="189.16" gradientTransform="matrix(-0.8, 0.6, 0.6, 0.8, 551.25, -156.93)" xlink:href="#Degradado_sin_nombre_64"/><linearGradient id="Degradado_sin_nombre_64-3" x1="87.87" y1="232.02" x2="171.6" y2="346.2" xlink:href="#Degradado_sin_nombre_64"/><linearGradient id="Degradado_sin_nombre_64-4" x1="605.95" y1="163.83" x2="605.95" y2="53.87" gradientTransform="matrix(-0.8, 0.6, 0.6, 0.8, 551.25, -156.93)" xlink:href="#Degradado_sin_nombre_64"/><clipPath id="clip-path"><rect class="cls-1" x="189.18" y="343.23" width="121.63" height="16.29"/></clipPath><clipPath id="clip-path-2"><rect class="cls-1" x="189.18" y="371.49" width="121.63" height="16.29"/></clipPath><clipPath id="clip-path-3"><path class="cls-1" d="M270.73,151.72H229.27a3.47,3.47,0,0,1-3.42-2.85l-8.63-46.36a3.59,3.59,0,0,1,0-1.46L221.09,83a3.47,3.47,0,0,1,3.38-2.66h51.06A3.47,3.47,0,0,1,278.91,83l3.83,18.1a3.59,3.59,0,0,1,0,1.46l-8.63,46.36A3.48,3.48,0,0,1,270.73,151.72Z"/></clipPath><clipPath id="clip-path-4"><polygon class="cls-1" points="351.94 328.97 343.75 328.97 327.4 385.36 369.45 385.36 351.94 328.97"/></clipPath><clipPath id="clip-path-5"><polygon class="cls-1" points="109.28 340.81 109.28 345.7 111.64 345.7 116.2 371.23 153.47 380.59 172.85 345.7 174.8 345.7 174.8 340.81 109.28 340.81"/></clipPath></defs><title>Not Found</title><g class="cls-2"><g id="BACKGROUND"><rect class="cls-3" width="500" height="500"/></g><g id="OBJECTS"><path class="cls-4" d="M453.4,229.77A41.49,41.49,0,0,1,456.15,261c-10.68,34.76-51.71,104.23-148.68,133.66-117.68,35.72-202.75-9.47-236.56-47.48C33.67,305.24,35.56,223,58.82,159.61c17.5-47.69,61.93-75.23,112.11-67.33C255.1,105.54,417.42,160,453.4,229.77Z"/><path class="cls-5" d="M64.15,389.49A41.43,41.43,0,0,1,48.66,362.3C43.87,326.25,52.22,246,128.09,178.83c92.08-81.52,188.25-75.9,234.82-55.44,51.32,22.55,83.88,98.12,89.16,165.42,4,50.64-24.94,94.19-73.85,107.92C296.18,419.76,125.94,437.91,64.15,389.49Z"/><path class="cls-6" d="M90,373.67a35.71,35.71,0,0,1-13.34-23.41c-4.12-31,3.07-100.13,68.39-158,79.28-70.19,162.08-65.35,202.17-47.73C391.39,164,419.43,229.05,424,287c3.42,43.6-21.47,81.09-63.58,92.92C289.76,399.73,143.19,415.36,90,373.67Z"/><path class="cls-7" d="M434.51,326.19c-1.28-7.58-5.11-14.34-7.71-21.49-3.34-9.21-1.75-16.61.71-25.77,3.69-13.77,3.75-29.2-3.4-41.86-1.94-3.45-4.58-6.45-6.54-9.88-2.17-3.78-3.15-8.7-3.58-13-.42-4.08.35-8.23.15-12.33a49.34,49.34,0,0,0-1.63-10.52c-2.55-9.62-9.49-22.06-21-21.94-13.6.14-17.05,16.5-16.6,27.2.31,7.43,1.6,15.3-1.09,22.45-2.91,7.75-10.43,12.41-14.77,19.24a38.2,38.2,0,0,0-3.2,34.23c2.52,6.25,8,11.87,8.22,18.86.27,8.12-8.65,12.91-12.71,19-6.82,10.16-7.18,23.39-2.43,34.45,11.81,24.73,44.4,33.33,67.5,19.47a1.38,1.38,0,0,0,1.07-.25C429,355.07,437,341.14,434.51,326.19Z"/><path class="cls-8" d="M392.05,387.76q.38-23.2.71-46.43l0,0a149.27,149.27,0,0,1-23.52-34.56c-.81-1.64,1.84-2.69,2.65-1.05a146.88,146.88,0,0,0,21,31.43q.27-19.68.5-39.34a1.65,1.65,0,0,1-.32-.28,175,175,0,0,1-24.73-35.43c-.86-1.62,1.8-2.66,2.65-1.05a172.08,172.08,0,0,0,22.46,32.6q.21-18.44.4-36.86a189.89,189.89,0,0,1-17.15-25.2c-.89-1.58,1.37-3.31,2.28-1.72a188.37,188.37,0,0,0,14.91,22.38q.18-18.36.33-36.72a1.52,1.52,0,0,1-.46-.36q-6.46-7.62-12.21-15.78c-1.05-1.5,1.22-3.22,2.28-1.72,3.29,4.68,6.78,9.22,10.42,13.63q.1-12.3.2-24.6c0-1.81,2.84-2.17,2.83-.33q-.12,17-.27,34,4.5-7.87,9.52-15.45c1-1.53,3.27.22,2.26,1.74q-6.35,9.53-11.83,19.55-.12,15-.28,29.91a1.71,1.71,0,0,1,0,.32l-.18,16.73a165,165,0,0,0,21.67-30.49c.88-1.6,3.47-.41,2.58,1.2a168.62,168.62,0,0,1-24.29,33.58q-.24,21.32-.52,42.64l20.33-21.72c1.24-1.32,3.51.41,2.26,1.74l-22.65,24.19q-.42,32-.94,63.92C394.84,390,392,389.58,392.05,387.76Z"/><path class="cls-9" d="M163.25,324.53c-1-5.83-3.93-11-5.92-16.53-2.58-7.08-1.35-12.77.54-19.81,2.84-10.58,2.89-22.45-2.61-32.19-1.5-2.65-3.53-4.95-5-7.59a26.1,26.1,0,0,1-2.76-10c-.31-3.14.27-6.33.13-9.48a38.83,38.83,0,0,0-1.26-8.09c-2-7.39-7.3-17-16.14-16.87-10.46.11-13.11,12.69-12.77,20.92.24,5.71,1.23,11.76-.84,17.26-2.24,6-8,9.53-11.36,14.79a29.39,29.39,0,0,0-2.46,26.31c1.94,4.81,6.15,9.14,6.33,14.51.2,6.24-6.66,9.92-9.78,14.57-5.24,7.82-5.52,18-1.87,26.49,9.09,19,34.14,25.63,51.9,15a1.14,1.14,0,0,0,.83-.2C159.05,346.73,165.19,336,163.25,324.53Z"/><path class="cls-10" d="M130.6,371.87q.3-17.85.55-35.7l0,0A115,115,0,0,1,113,309.57c-.62-1.27,1.42-2.07,2-.81a113,113,0,0,0,16.12,24.16q.21-15.12.39-30.25a.82.82,0,0,1-.25-.21,135,135,0,0,1-19-27.24c-.65-1.25,1.39-2.05,2-.81a132.38,132.38,0,0,0,17.27,25.07q.17-14.18.3-28.34a147.26,147.26,0,0,1-13.18-19.38c-.68-1.21,1.06-2.54,1.75-1.32A145.82,145.82,0,0,0,132,267.65q.14-14.11.25-28.23a1.48,1.48,0,0,1-.35-.28q-5-5.87-9.39-12.14c-.81-1.15.94-2.47,1.75-1.32q3.81,5.4,8,10.48.08-9.45.15-18.91c0-1.39,2.18-1.67,2.17-.26q-.07,13.06-.2,26.12,3.47-6.06,7.32-11.88c.78-1.18,2.51.17,1.73,1.34q-4.87,7.32-9.09,15-.09,11.49-.22,23a1,1,0,0,1,0,.24q-.06,6.44-.13,12.86a126.49,126.49,0,0,0,16.65-23.43c.68-1.23,2.67-.32,2,.92A129.29,129.29,0,0,1,133.94,287q-.18,16.38-.4,32.78l15.64-16.7c.95-1,2.7.31,1.73,1.34L133.5,323q-.33,24.57-.73,49.14C132.75,373.58,130.58,373.26,130.6,371.87Z"/><circle class="cls-11" cx="302.8" cy="212.45" r="17.59"/><path class="cls-11" d="M280.9,194.87a7.42,7.42,0,0,1-7.42,7.42,7.42,7.42,0,0,1,7.42,7.42,7.42,7.42,0,0,1,7.42-7.42A7.42,7.42,0,0,1,280.9,194.87Z"/><path class="cls-11" d="M213,283a7.42,7.42,0,0,1-7.42,7.42,7.42,7.42,0,0,1,7.42,7.42,7.42,7.42,0,0,1,7.42-7.42A7.42,7.42,0,0,1,213,283Z"/><path class="cls-12" d="M205.56,282.53H192.68v16.59H168.79V282.53H123v-16l38.87-54.11h25.38L152,263.09h17.58V248.36h23.15v14.73h12.88Z"/><path class="cls-12" d="M377,282.53H364.14v16.59H340.25V282.53H294.44v-16l38.88-54.11H358.7l-35.28,50.64H341V248.36h23.15v14.73H377Z"/><path class="cls-12" d="M250.06,210.72c-22.16,0-38.25,16.47-38.25,45.06s16.09,45.07,38.25,45.07,38.13-16.47,38.13-45.07S272.1,210.72,250.06,210.72Z"/><path class="cls-13" d="M231.63,247.4,226.35,251a1.37,1.37,0,0,0-.38,1.92l1.49,2.22a1.38,1.38,0,0,1-.06,1.62,16.64,16.64,0,0,0-2.15,4,1.41,1.41,0,0,1-1.32.95l-2.66,0a1.39,1.39,0,0,0-1.4,1.38l-.05,6.36a1.39,1.39,0,0,0,1.38,1.4l2.67,0a1.41,1.41,0,0,1,1.31,1,16.26,16.26,0,0,0,2.07,4,1.4,1.4,0,0,1,0,1.62l-1.53,2.19a1.39,1.39,0,0,0,.35,1.93l5.22,3.63a1.39,1.39,0,0,0,1.93-.34l1.53-2.2a1.39,1.39,0,0,1,1.53-.53,16.79,16.79,0,0,0,4.49.55,1.38,1.38,0,0,1,1.36.88l1,2.5a1.37,1.37,0,0,0,1.79.8l5.94-2.26a1.37,1.37,0,0,0,.8-1.79l-1-2.49a1.41,1.41,0,0,1,.43-1.57,16.27,16.27,0,0,0,4.55-6.44,1.41,1.41,0,0,1,1.34-.92l2.67.07a1.39,1.39,0,0,0,1.42-1.35l.16-6.36a1.39,1.39,0,0,0-1.35-1.42l-2.68-.07a1.38,1.38,0,0,1-1.28-1,16.29,16.29,0,0,0-4.64-7.06,1.4,1.4,0,0,1-.4-1.57l1-2.47a1.39,1.39,0,0,0-.78-1.8l-5.9-2.35a1.39,1.39,0,0,0-1.81.77l-1,2.47a1.41,1.41,0,0,1-1.38.87,15.88,15.88,0,0,0-4.09.38c-.47.1-.92.24-1.37.38l-2-3A1.38,1.38,0,0,0,231.63,247.4Zm7.12,11a8.11,8.11,0,1,1-6.14,9.68A8.1,8.1,0,0,1,238.75,258.42Z"/><path class="cls-13" d="M255.42,226.89l-3.86,3.18a1.09,1.09,0,0,0-.15,1.53l1.33,1.62a1.1,1.1,0,0,1,.08,1.27,12.62,12.62,0,0,0-1.38,3.28,1.11,1.11,0,0,1-1,.83l-2.09.19a1.09,1.09,0,0,0-1,1.18l.44,5a1.09,1.09,0,0,0,1.18,1l2.1-.18a1.11,1.11,0,0,1,1.09.65,12.84,12.84,0,0,0,1.92,3,1.11,1.11,0,0,1,.15,1.27l-1,1.82a1.09,1.09,0,0,0,.41,1.49l4.36,2.44a1.08,1.08,0,0,0,1.48-.41l1-1.83a1.1,1.1,0,0,1,1.16-.54,12.38,12.38,0,0,0,3.55.09,1.11,1.11,0,0,1,1.13.6l.93,1.88a1.09,1.09,0,0,0,1.46.49l4.47-2.22a1.1,1.1,0,0,0,.5-1.46l-.93-1.88a1.08,1.08,0,0,1,.21-1.25,12.91,12.91,0,0,0,3.08-5.38,1.1,1.1,0,0,1,1-.82l2.1-.15a1.08,1.08,0,0,0,1-1.16l-.35-5a1.09,1.09,0,0,0-1.16-1l-2.1.15a1.11,1.11,0,0,1-1.08-.68,12.73,12.73,0,0,0-4.15-5.16,1.11,1.11,0,0,1-.43-1.2l.58-2a1.08,1.08,0,0,0-.74-1.35l-4.8-1.4a1.09,1.09,0,0,0-1.35.74l-.58,2a1.1,1.1,0,0,1-1,.79,12.74,12.74,0,0,0-3.18.6c-.35.12-.7.26-1,.4L257,227A1.09,1.09,0,0,0,255.42,226.89Zm6.4,8.09a6.37,6.37,0,1,1-4.07,8A6.37,6.37,0,0,1,261.82,235Z"/><polygon class="cls-14" points="215.72 406.71 208.4 406.71 200.43 336.26 207.75 336.26 215.72 406.71"/><rect class="cls-12" x="200.43" y="336.26" width="7.32" height="74.24"/><polygon class="cls-14" points="284.28 406.71 291.6 406.71 299.57 336.26 292.25 336.26 284.28 406.71"/><rect class="cls-12" x="292.25" y="336.26" width="7.32" height="74.24" transform="translate(591.82 746.77) rotate(180)"/><rect class="cls-12" x="189.18" y="343.23" width="121.63" height="16.29"/><g class="cls-15"><g class="cls-16"><rect class="cls-12" x="156.51" y="346.73" width="65.35" height="13.06" transform="translate(-203.16 434.77) rotate(-73.57)"/></g><g class="cls-16"><rect class="cls-12" x="177.94" y="346.73" width="65.35" height="13.06" transform="translate(-187.79 455.33) rotate(-73.57)"/></g><g class="cls-16"><rect class="cls-12" x="199.38" y="346.73" width="65.35" height="13.06" transform="translate(-172.42 475.89) rotate(-73.57)"/></g><g class="cls-16"><rect class="cls-12" x="220.82" y="346.73" width="65.35" height="13.06" transform="translate(-157.05 496.45) rotate(-73.57)"/></g><g class="cls-16"><rect class="cls-12" x="242.25" y="346.73" width="65.35" height="13.06" transform="translate(-141.68 517.01) rotate(-73.57)"/></g><g class="cls-16"><rect class="cls-12" x="263.69" y="346.73" width="65.35" height="13.06" transform="translate(-126.3 537.57) rotate(-73.57)"/></g><g class="cls-16"><rect class="cls-12" x="285.12" y="346.73" width="65.35" height="13.06" transform="translate(-110.93 558.13) rotate(-73.57)"/></g></g><rect class="cls-12" x="189.18" y="371.49" width="121.63" height="16.29"/><g class="cls-17"><g class="cls-16"><rect class="cls-12" x="156.51" y="374.99" width="65.35" height="13.06" transform="translate(-230.27 455.03) rotate(-73.57)"/></g><g class="cls-16"><rect class="cls-12" x="177.94" y="374.99" width="65.35" height="13.06" transform="translate(-214.9 475.59) rotate(-73.57)"/></g><g class="cls-16"><rect class="cls-12" x="199.38" y="374.99" width="65.35" height="13.06" transform="translate(-199.52 496.15) rotate(-73.57)"/></g><g class="cls-16"><rect class="cls-12" x="220.82" y="374.99" width="65.35" height="13.06" transform="translate(-184.15 516.71) rotate(-73.57)"/></g><g class="cls-16"><rect class="cls-12" x="242.25" y="374.99" width="65.35" height="13.06" transform="translate(-168.78 537.27) rotate(-73.57)"/></g><g class="cls-16"><rect class="cls-12" x="263.69" y="374.99" width="65.35" height="13.06" transform="translate(-153.41 557.83) rotate(-73.57)"/></g><g class="cls-16"><rect class="cls-12" x="285.12" y="374.99" width="65.35" height="13.06" transform="translate(-138.04 578.39) rotate(-73.57)"/></g></g><g class="cls-16"><rect class="cls-12" x="189.18" y="371.49" width="121.63" height="6.14"/></g><rect class="cls-12" x="231.65" y="45.06" width="1.16" height="43.45"/><rect class="cls-12" x="269.79" y="45.06" width="1.16" height="43.45"/><path class="cls-12" d="M253.41,163.08V133.72h-6.82v31.8a3.53,3.53,0,0,0-.07.7,3.48,3.48,0,0,0,3.48,3.49,11.18,11.18,0,1,1-10.73,8,3.49,3.49,0,0,0-5-4.07,3.43,3.43,0,0,0-1.68,2.07,18.17,18.17,0,1,0,20.81-12.6Z"/><g class="cls-16"><path class="cls-12" d="M253.41,163.08V133.72h-6.82v31.8a3.53,3.53,0,0,0-.07.7,3.48,3.48,0,0,0,3.48,3.49,11.18,11.18,0,1,1-10.73,8,3.49,3.49,0,0,0-5-4.07,3.43,3.43,0,0,0-1.68,2.07,18.17,18.17,0,1,0,20.81-12.6Z"/></g><path class="cls-12" d="M270.73,151.72H229.27a3.47,3.47,0,0,1-3.42-2.85l-8.63-46.36a3.59,3.59,0,0,1,0-1.46L221.09,83a3.47,3.47,0,0,1,3.38-2.66h51.06A3.47,3.47,0,0,1,278.91,83l3.83,18.1a3.59,3.59,0,0,1,0,1.46l-8.63,46.36A3.48,3.48,0,0,1,270.73,151.72Z"/><rect class="cls-12" x="234.51" y="151.72" width="30.97" height="5.81"/><g class="cls-18"><g class="cls-16"><rect class="cls-12" x="157.09" y="99" width="125.8" height="10.45" transform="matrix(0.28, -0.96, 0.96, 0.28, 58.33, 286.23)"/><rect class="cls-12" x="177.96" y="99" width="125.8" height="10.45" transform="matrix(0.28, -0.96, 0.96, 0.28, 73.35, 306.26)"/><rect class="cls-12" x="198.83" y="99" width="125.8" height="10.45" transform="matrix(0.28, -0.96, 0.96, 0.28, 88.38, 326.29)"/><rect class="cls-12" x="219.7" y="99" width="125.8" height="10.45" transform="matrix(0.28, -0.96, 0.96, 0.28, 103.4, 346.33)"/></g></g><g class="cls-16"><rect class="cls-12" x="189.18" y="343.23" width="121.63" height="6.14"/></g><polygon class="cls-12" points="351.94 328.97 343.75 328.97 327.4 385.36 369.45 385.36 351.94 328.97"/><g class="cls-19"><g class="cls-16"><rect class="cls-12" x="322.69" y="334.2" width="51.47" height="7.85"/><rect class="cls-12" x="322.69" y="348.01" width="51.47" height="7.85"/><rect class="cls-12" x="322.69" y="361.82" width="51.47" height="7.85"/><rect class="cls-12" x="322.69" y="375.63" width="51.47" height="7.85"/><polygon class="cls-20" points="348.42 326.33 365.26 387.21 372.52 387.21 354.08 326.33 348.42 326.33"/></g></g><rect class="cls-12" x="322.69" y="384.67" width="51.47" height="5.09"/><g class="cls-21"><rect class="cls-12" x="322.69" y="384.67" width="51.47" height="5.09"/></g><g class="cls-21"><rect class="cls-12" x="361.63" y="384.67" width="12.53" height="5.09"/></g><polygon class="cls-12" points="153.47 380.59 116.2 371.23 111.01 342.19 174.8 342.19 153.47 380.59"/><polygon class="cls-12" points="116.62 371.34 114.95 370.89 105.03 346.97 93.3 346.74 93.34 344.66 106.42 344.92 117.17 370.84 116.62 371.34"/><polygon class="cls-22" points="118.52 368.05 120.19 387.67 123.22 387.67 129.07 371.43 118.52 368.05"/><rect class="cls-12" x="88.36" y="343.6" width="11.82" height="4.21" rx="1.81"/><g class="cls-16"><path class="cls-12" d="M98.08,347.81H90.46a2.11,2.11,0,0,1-2.1-2.11h0a2.1,2.1,0,0,1,2.1-2.1h7.62a2.1,2.1,0,0,1,2.1,2.1h0A2.11,2.11,0,0,1,98.08,347.81Z"/></g><g class="cls-23"><g class="cls-24"><polygon class="cls-12" points="113.61 339.42 118.52 368.05 142.9 373.2 165.06 333.62 179.79 337.86 145.83 391.05 114.99 377.86 107.2 339.6 113.61 339.42"/></g></g><circle class="cls-12" cx="153.47" cy="380.59" r="9.16" transform="translate(-224.17 219.99) rotate(-45)"/><circle class="cls-25" cx="153.47" cy="380.59" r="4.22"/><rect class="cls-12" x="109.28" y="340.81" width="65.52" height="4.89"/><g class="cls-16"><rect class="cls-12" x="109.28" y="340.81" width="65.52" height="4.89"/></g></g></g></svg>